STARTFONT 2.1
FONT -Monotype-Plantin-Bold-R-Normal--25-180-100-100-P-145-iso8859-5
SIZE 18 100 100
FONTBOUNDINGBOX 31 28 -2 -6

STARTPROPERTIES 24
FOUNDRY "Monotype"
FAMILY_NAME "Plantin"
WEIGHT_NAME "Bold"
SLANT "R"
SETWIDTH_NAME "Normal"
ADD_STYLE_NAME ""
PIXEL_SIZE 25
POINT_SIZE 180
RESOLUTION_X 100
RESOLUTION_Y 100
SPACING "P"
AVERAGE_WIDTH 145
CHARSET_REGISTRY "iso8859"
CHARSET_ENCODING "5"
FACE_NAME "Plantin Bold ISO Latin Cyrillic"
_DEC_DEVICE_FONTNAMES "PS=plantin-b-latcyrillic"
COPYRIGHT "Copyright (c) 1993 Monotype Typography Ltd."
CAP_HEIGHT 19
X_HEIGHT 12
WEIGHT 10
QUAD_WIDTH 17
DEFAULT_CHAR 160
FONT_DESCENT 6
FONT_ASCENT 22
ENDPROPERTIES

CHARS 191

STARTCHAR space
ENCODING 32
SWIDTH 250 0
DWIDTH 6 0
BBX 0 0 0 0
BITMAP
ENDCHAR

STARTCHAR exclam
ENCODING 33
SWIDTH 344 0
DWIDTH 9 0
BBX 5 17 2 0
BITMAP
F0
F0
F0
F0
F0
F0
60
60
60
60
60
00
20
F8
F8
F8
70
ENDCHAR

STARTCHAR quotedbl
ENCODING 34
SWIDTH 552 0
DWIDTH 14 0
BBX 10 8 2 9
BITMAP
6180
F3C0
F3C0
F3C0
6180
6180
6180
2080
ENDCHAR

STARTCHAR numbersign
ENCODING 35
SWIDTH 500 0
DWIDTH 13 0
BBX 11 17 1 0
BITMAP
1840
18C0
18C0
10C0
1080
FFE0
FFE0
3180
2180
2100
FFE0
FFE0
6300
4300
4200
C200
C600
ENDCHAR

STARTCHAR dollar
ENCODING 36
SWIDTH 521 0
DWIDTH 13 0
BBX 11 20 1 -2
BITMAP
0400
1F00
7D80
65C0
E4C0
E400
FC00
7C00
7F00
3F80
0FC0
07E0
05E0
04E0
C4E0
E4E0
F5C0
3F80
0400
0400
ENDCHAR

STARTCHAR percent
ENCODING 37
SWIDTH 927 0
DWIDTH 23 0
BBX 22 18 1 -1
BITMAP
3C01C0
660180
E70300
E70700
E70600
E70E00
E71C00
661800
3C3800
0070F0
006198
00E39C
01C39C
01839C
03839C
07039C
060198
0E00F0
ENDCHAR

STARTCHAR ampersand
ENCODING 38
SWIDTH 781 0
DWIDTH 20 0
BBX 19 17 0 0
BITMAP
01F000
073800
0E3800
0F1800
0FB000
0FE000
03E3E0
07E1C0
1DF180
38F900
707F00
F07E00
F83E00
F81F00
FE3F80
7FE7E0
1F03E0
ENDCHAR

STARTCHAR quoteright
ENCODING 39
SWIDTH 344 0
DWIDTH 9 0
BBX 5 8 2 9
BITMAP
70
F8
F8
78
18
38
70
C0
ENDCHAR

STARTCHAR parenleft
ENCODING 40
SWIDTH 417 0
DWIDTH 10 0
BBX 8 22 2 -5
BITMAP
07
0E
1C
38
38
70
70
F0
E0
E0
E0
E0
E0
E0
70
70
30
38
1C
0C
07
02
ENDCHAR

STARTCHAR parenright
ENCODING 41
SWIDTH 417 0
DWIDTH 10 0
BBX 8 22 0 -5
BITMAP
C0
70
38
1C
1C
0E
0E
07
07
07
07
07
07
07
0E
0E
0C
1C
18
30
60
40
ENDCHAR

STARTCHAR asterisk
ENCODING 42
SWIDTH 510 0
DWIDTH 13 0
BBX 11 11 1 6
BITMAP
0400
0400
0C00
0E00
FFE0
7FC0
3F00
1F00
3F00
3380
2080
ENDCHAR

STARTCHAR plus
ENCODING 43
SWIDTH 667 0
DWIDTH 17 0
BBX 13 13 2 2
BITMAP
0700
0700
0700
0700
0700
FFF8
FFF8
FFF8
0700
0700
0700
0700
0700
ENDCHAR

STARTCHAR comma
ENCODING 44
SWIDTH 344 0
DWIDTH 9 0
BBX 5 8 2 -4
BITMAP
F0
F8
F8
78
18
18
30
E0
ENDCHAR

STARTCHAR minus
ENCODING 45
SWIDTH 667 0
DWIDTH 17 0
BBX 13 3 2 7
BITMAP
FFF8
FFF8
FFF8
ENDCHAR

STARTCHAR period
ENCODING 46
SWIDTH 344 0
DWIDTH 9 0
BBX 5 5 2 0
BITMAP
70
F8
F8
F8
70
ENDCHAR

STARTCHAR slash
ENCODING 47
SWIDTH 281 0
DWIDTH 7 0
BBX 7 17 0 0
BITMAP
06
06
04
0C
0C
08
18
18
10
30
30
20
20
60
60
40
C0
ENDCHAR

STARTCHAR zero
ENCODING 48
SWIDTH 521 0
DWIDTH 13 0
BBX 12 17 0 0
BITMAP
0F00
1980
30C0
70E0
70E0
F0F0
F0F0
F0F0
F0F0
F0F0
F0F0
70E0
70E0
70E0
30C0
1980
0F00
ENDCHAR

STARTCHAR one
ENCODING 49
SWIDTH 521 0
DWIDTH 13 0
BBX 9 17 2 0
BITMAP
0C00
1C00
FC00
FC00
1C00
1C00
1C00
1C00
1C00
1C00
1C00
1C00
1C00
1C00
1C00
3E00
FF80
ENDCHAR

STARTCHAR two
ENCODING 50
SWIDTH 521 0
DWIDTH 13 0
BBX 11 17 1 0
BITMAP
1F00
7F80
C7C0
43C0
01C0
01C0
01C0
0380
0300
0700
0600
0C00
1820
3060
7FC0
FFC0
FFC0
ENDCHAR

STARTCHAR three
ENCODING 51
SWIDTH 521 0
DWIDTH 13 0
BBX 11 17 0 0
BITMAP
1F00
7FC0
E3C0
41C0
01C0
0180
0300
0F80
3FC0
03E0
01E0
00E0
00E0
00E0
41C0
7380
7E00
ENDCHAR

STARTCHAR four
ENCODING 52
SWIDTH 521 0
DWIDTH 13 0
BBX 12 17 1 0
BITMAP
00C0
01C0
03C0
02C0
05C0
09C0
19C0
11C0
21C0
61C0
41C0
FFF0
FFF0
01C0
01C0
01C0
01C0
ENDCHAR

STARTCHAR five
ENCODING 53
SWIDTH 521 0
DWIDTH 13 0
BBX 10 18 2 0
BITMAP
0040
1FC0
1F80
1F80
2000
2000
7800
7E00
FF00
1F80
07C0
03C0
01C0
01C0
0180
4300
FE00
F800
ENDCHAR

STARTCHAR six
ENCODING 54
SWIDTH 521 0
DWIDTH 13 0
BBX 12 17 1 0
BITMAP
0060
03C0
0700
1E00
3C00
3800
7800
7780
FFE0
F1E0
F0F0
F0F0
F0F0
70F0
70E0
39C0
0F80
ENDCHAR

STARTCHAR seven
ENCODING 55
SWIDTH 521 0
DWIDTH 13 0
BBX 11 17 1 0
BITMAP
7FE0
7FE0
7FC0
C0C0
0080
0180
0180
0100
0300
0300
0200
0600
0600
0400
0C00
0C00
0800
ENDCHAR

STARTCHAR eight
ENCODING 56
SWIDTH 521 0
DWIDTH 13 0
BBX 11 17 1 0
BITMAP
3F00
7180
E0C0
E0C0
F0C0
F980
7F00
7E00
1F80
3FC0
67C0
E3E0
C1E0
C1E0
E1C0
63C0
3F00
ENDCHAR

STARTCHAR nine
ENCODING 57
SWIDTH 521 0
DWIDTH 13 0
BBX 12 17 0 0
BITMAP
1F80
39C0
70E0
F0E0
F0F0
F0F0
F0F0
78F0
7FF0
1EE0
01E0
01C0
03C0
0780
0F00
7C00
2000
ENDCHAR

STARTCHAR colon
ENCODING 58
SWIDTH 344 0
DWIDTH 9 0
BBX 5 12 2 0
BITMAP
70
F8
F8
F8
20
00
00
70
F8
F8
F8
70
ENDCHAR

STARTCHAR semicolon
ENCODING 59
SWIDTH 344 0
DWIDTH 9 0
BBX 5 16 2 -4
BITMAP
70
F8
F8
F8
70
00
00
60
F0
F8
F8
38
18
10
30
E0
ENDCHAR

STARTCHAR less
ENCODING 60
SWIDTH 667 0
DWIDTH 17 0
BBX 13 14 2 1
BITMAP
0008
0078
01F8
07E0
3F80
FC00
E000
F800
7E00
1FC0
03F0
00F8
0018
0008
ENDCHAR

STARTCHAR equal
ENCODING 61
SWIDTH 667 0
DWIDTH 17 0
BBX 13 9 2 4
BITMAP
FFF8
FFF8
FFF8
0000
0000
0000
FFF8
FFF8
FFF8
ENDCHAR

STARTCHAR greater
ENCODING 62
SWIDTH 667 0
DWIDTH 17 0
BBX 13 14 2 1
BITMAP
8000
E000
FC00
3F00
0FC0
01F8
0038
00F8
07F0
1F80
FE00
F000
C000
8000
ENDCHAR

STARTCHAR question
ENCODING 63
SWIDTH 458 0
DWIDTH 11 0
BBX 9 17 1 0
BITMAP
F800
FE00
E300
0180
0180
0380
1F80
3F80
1F00
1000
1000
0000
1000
7800
7C00
7800
3800
ENDCHAR

STARTCHAR at
ENCODING 64
SWIDTH 927 0
DWIDTH 23 0
BBX 22 23 1 -6
BITMAP
00FF00
0300C0
0C0020
180010
300010
603B88
60EB08
41C708
C18708
838E08
838E08
870E08
871E10
872C10
C75C20
47DCC4
438F08
200008
200010
100020
0C00C0
038300
007C00
ENDCHAR

STARTCHAR A
ENCODING 65
SWIDTH 781 0
DWIDTH 20 0
BBX 19 17 0 0
BITMAP
01F000
00F000
01F800
017800
037800
027C00
023C00
063E00
041E00
0FFF00
081F00
180F00
180F80
100780
3807C0
FC1FE0
FC1FE0
ENDCHAR

STARTCHAR B
ENCODING 66
SWIDTH 781 0
DWIDTH 20 0
BBX 18 17 1 0
BITMAP
FFFC00
7C3F00
3C1F80
3C0F80
3C0F80
3C0F80
3C0F00
3C3400
3FF800
3C1F00
3C0F80
3C07C0
3C07C0
3C07C0
3E0F80
7E1F00
FFFE00
ENDCHAR

STARTCHAR C
ENCODING 67
SWIDTH 802 0
DWIDTH 20 0
BBX 18 17 1 0
BITMAP
03FE00
0F0F80
1E0380
3C0180
7C01C0
780000
F80000
F80000
F80000
F80000
F80000
7800C0
7C01C0
3C01C0
1E03C0
0F87C0
03FE00
ENDCHAR

STARTCHAR D
ENCODING 68
SWIDTH 875 0
DWIDTH 22 0
BBX 20 17 1 0
BITMAP
FFFE00
7C1F80
3C07C0
3C03E0
3C03E0
3C01F0
3C01F0
3C01F0
3C01F0
3C01F0
3C01F0
3C01E0
3C03E0
3C03C0
3E0780
7E0F00
FFFC00
ENDCHAR

STARTCHAR E
ENCODING 69
SWIDTH 750 0
DWIDTH 19 0
BBX 17 17 1 0
BITMAP
FFFF00
7C0F00
3C0700
3C0300
3C0000
3C0000
3C0C00
3C1C00
3FFC00
3C1C00
3C0C00
3C0000
3C0000
3C0180
3C0380
7E0F80
FFFF00
ENDCHAR

STARTCHAR F
ENCODING 70
SWIDTH 687 0
DWIDTH 17 0
BBX 16 17 1 0
BITMAP
FFFF
7C0F
3C07
3C03
3C00
3C00
3C0C
3C1C
3FFC
3C1C
3C0C
3C00
3C00
3C00
3C00
7E00
FF80
ENDCHAR

STARTCHAR G
ENCODING 71
SWIDTH 844 0
DWIDTH 21 0
BBX 19 17 1 0
BITMAP
03FE00
0F0F80
1E0780
3C0380
780180
780000
F80000
F80000
F80000
F81FE0
F80FC0
F80780
7C0780
7C0780
3E0780
0F0F80
03FE00
ENDCHAR

STARTCHAR H
ENCODING 72
SWIDTH 875 0
DWIDTH 22 0
BBX 21 17 0 0
BITMAP
FF8FF8
3F07E0
1E03C0
1E03C0
1E03C0
1E03C0
1E03C0
1E03C0
1FFFC0
1E03C0
1E03C0
1E03C0
1E03C0
1E03C0
1E03C0
3F07E0
FF8FF8
ENDCHAR

STARTCHAR I
ENCODING 73
SWIDTH 406 0
DWIDTH 10 0
BBX 8 17 1 0
BITMAP
FF
7E
3C
3C
3C
3C
3C
3C
3C
3C
3C
3C
3C
3C
3C
7E
FF
ENDCHAR

STARTCHAR J
ENCODING 74
SWIDTH 406 0
DWIDTH 10 0
BBX 11 22 -2 -5
BITMAP
1FE0
0FC0
0780
0780
0780
0780
0780
0780
0780
0780
0780
0780
0780
0780
0780
0780
0780
0780
0780
6700
F600
7C00
ENDCHAR

STARTCHAR K
ENCODING 75
SWIDTH 781 0
DWIDTH 20 0
BBX 19 17 1 0
BITMAP
FF1FC0
7E0F00
3C0C00
3C1800
3C3000
3C6000
3CC000
3FC000
3FE000
3DF000
3DF800
3CFC00
3C7E00
3C3F00
3C1F80
7E0FC0
FF07E0
ENDCHAR

STARTCHAR L
ENCODING 76
SWIDTH 687 0
DWIDTH 17 0
BBX 16 17 1 0
BITMAP
FF00
7E00
3C00
3C00
3C00
3C00
3C00
3C00
3C00
3C00
3C00
3C00
3C00
3C03
3C0F
7E1E
FFFE
ENDCHAR

STARTCHAR M
ENCODING 77
SWIDTH 1010 0
DWIDTH 25 0
BBX 25 17 0 0
BITMAP
3F00FE00
1F00F800
0F80F800
1F80F800
1F81B800
17C17800
17C37800
13E27C00
13E67C00
31F47C00
31FC3C00
20F83C00
20F83C00
20783E00
60703E00
70707E00
F830FF80
ENDCHAR

STARTCHAR N
ENCODING 78
SWIDTH 792 0
DWIDTH 20 0
BBX 19 17 0 0
BITMAP
FE07E0
7F03E0
1F8180
1F8080
17C080
17E080
13F080
11F880
10FC80
107E80
103F80
101F80
100F80
100780
180780
3803C0
FE01C0
ENDCHAR

STARTCHAR O
ENCODING 79
SWIDTH 875 0
DWIDTH 22 0
BBX 19 17 1 0
BITMAP
03F800
0F1E00
1C0F80
3C07C0
7803C0
7803E0
F803E0
F803E0
F803E0
F803E0
F803E0
7803C0
7C03C0
3C0780
3E0700
0F1E00
03F800
ENDCHAR

STARTCHAR P
ENCODING 80
SWIDTH 729 0
DWIDTH 18 0
BBX 17 17 1 0
BITMAP
FFFC00
7C3F00
3C1F00
3C0F80
3C0F80
3C0F80
3C0F00
3C1F00
3CFC00
3C0000
3C0000
3C0000
3C0000
3C0000
3C0000
7E0000
FF8000
ENDCHAR

STARTCHAR Q
ENCODING 81
SWIDTH 865 0
DWIDTH 22 0
BBX 19 22 1 -5
BITMAP
03F800
0F1E00
1C0F80
3C0780
7807C0
7803C0
F803E0
F803E0
F803E0
F803E0
F803E0
F803C0
7803C0
7C03C0
3C0780
1E0F00
07FC00
01FC00
00FF00
003FE0
000FE0
0001E0
ENDCHAR

STARTCHAR R
ENCODING 82
SWIDTH 771 0
DWIDTH 19 0
BBX 19 17 1 0
BITMAP
FFFC00
7C3F00
3C1F80
3C0F80
3C0F80
3C0F80
3C0F00
3C3E00
3FF000
3CF800
3C7C00
3C7E00
3C3F00
3C1F00
3C1F80
7E0FC0
FF87E0
ENDCHAR

STARTCHAR S
ENCODING 83
SWIDTH 656 0
DWIDTH 16 0
BBX 14 17 1 0
BITMAP
1FE0
3878
7038
F018
F818
FC00
FF80
7FE0
3FF0
0FF8
01FC
007C
C07C
E03C
F03C
F878
1FE0
ENDCHAR

STARTCHAR T
ENCODING 84
SWIDTH 740 0
DWIDTH 18 0
BBX 18 17 0 0
BITMAP
FFFFC0
F1E3C0
E1E1C0
C1E0C0
01E000
01E000
01E000
01E000
01E000
01E000
01E000
01E000
01E000
01E000
01E000
03F000
07F800
ENDCHAR

STARTCHAR U
ENCODING 85
SWIDTH 833 0
DWIDTH 21 0
BBX 19 17 1 0
BITMAP
FF87E0
7E01C0
3C0080
3C0080
3C0080
3C0080
3C0080
3C0080
3C0080
3C0080
3C0080
3C0080
3E0180
3E0180
1F0700
0FFE00
03F800
ENDCHAR

STARTCHAR V
ENCODING 86
SWIDTH 729 0
DWIDTH 18 0
BBX 18 17 0 0
BITMAP
FF0FC0
7E0780
3E0300
3E0300
1E0200
1F0600
0F0400
0F8400
078800
07C800
03D000
03F000
01F000
01E000
01E000
00C000
00C000
ENDCHAR

STARTCHAR W
ENCODING 87
SWIDTH 1031 0
DWIDTH 26 0
BBX 25 17 0 0
BITMAP
FE7F8F80
7C3F0700
3C1F0300
3E1F0200
3E0F0600
1E0F8400
1F1F8400
0F17CC00
0F17C800
0FB3C800
07A3F800
07C1F000
07C1F000
03C1F000
03C0E000
0380E000
0180E000
ENDCHAR

STARTCHAR X
ENCODING 88
SWIDTH 781 0
DWIDTH 20 0
BBX 19 17 0 0
BITMAP
FFCFC0
7F87C0
3F0700
1F0600
0F8C00
07D800
07F000
03F000
01F000
00F800
01FC00
037E00
063E00
0C1F00
1C0F80
3C1FC0
FE3FE0
ENDCHAR

STARTCHAR Y
ENCODING 89
SWIDTH 729 0
DWIDTH 18 0
BBX 18 17 0 0
BITMAP
FF8FC0
7F0780
3E0300
1F0200
1F0600
0F8400
0F8800
07C800
03D000
03F000
01E000
01E000
01E000
01E000
01E000
03F000
0FFC00
ENDCHAR

STARTCHAR Z
ENCODING 90
SWIDTH 687 0
DWIDTH 17 0
BBX 15 17 1 0
BITMAP
7FFE
707C
607C
40F8
01F0
01F0
03E0
07E0
07C0
0F80
1F80
1F00
3E00
7E06
7C0E
F81E
FFFE
ENDCHAR

STARTCHAR bracketleft
ENCODING 91
SWIDTH 396 0
DWIDTH 10 0
BBX 7 21 2 -4
BITMAP
FE
F0
F0
F0
F0
F0
F0
F0
F0
F0
F0
F0
F0
F0
F0
F0
F0
F0
F0
F0
FE
ENDCHAR

STARTCHAR backslash
ENCODING 92
SWIDTH 281 0
DWIDTH 7 0
BBX 7 17 0 0
BITMAP
C0
C0
40
60
60
20
30
30
10
18
18
08
0C
0C
04
04
06
ENDCHAR

STARTCHAR bracketright
ENCODING 93
SWIDTH 396 0
DWIDTH 10 0
BBX 7 21 1 -4
BITMAP
FE
1E
1E
1E
1E
1E
1E
1E
1E
1E
1E
1E
1E
1E
1E
1E
1E
1E
1E
1E
FE
ENDCHAR

STARTCHAR asciicircum
ENCODING 94
SWIDTH 583 0
DWIDTH 15 0
BBX 11 9 2 8
BITMAP
0400
0E00
1E00
1B00
3300
3180
6180
40C0
C060
ENDCHAR

STARTCHAR underscore
ENCODING 95
SWIDTH 500 0
DWIDTH 13 0
BBX 13 1 0 -5
BITMAP
FFF8
ENDCHAR

STARTCHAR quoteleft
ENCODING 96
SWIDTH 344 0
DWIDTH 9 0
BBX 5 8 2 9
BITMAP
18
70
E0
C0
F0
F8
F8
70
ENDCHAR

STARTCHAR a
ENCODING 97
SWIDTH 562 0
DWIDTH 14 0
BBX 13 12 1 0
BITMAP
3FC0
71E0
F1E0
F1E0
41E0
0FE0
39E0
71E0
F1E0
F1F8
FEF0
3CE0
ENDCHAR

STARTCHAR b
ENCODING 98
SWIDTH 604 0
DWIDTH 15 0
BBX 15 18 -1 0
BITMAP
1C00
FC00
7C00
3C00
3C00
3C00
3DF8
3DFC
3E7C
3C3E
3C1E
3C1E
3C1E
3C1E
3C1C
3C3C
3E78
0FE0
ENDCHAR

STARTCHAR c
ENCODING 99
SWIDTH 521 0
DWIDTH 13 0
BBX 11 12 1 0
BITMAP
1F80
31E0
71E0
E0C0
E000
E000
F000
F000
F860
7FC0
3FC0
1E00
ENDCHAR

STARTCHAR d
ENCODING 100
SWIDTH 615 0
DWIDTH 15 0
BBX 15 18 1 0
BITMAP
0038
01F8
00F8
0078
0078
0078
0FF8
3CF8
7878
7078
F078
F078
F078
F078
F878
7CF8
7FBE
1E7E
ENDCHAR

STARTCHAR e
ENCODING 101
SWIDTH 521 0
DWIDTH 13 0
BBX 11 12 1 0
BITMAP
1F80
33C0
71E0
E1E0
FFE0
E000
F000
F000
F860
7FE0
3F80
0E00
ENDCHAR

STARTCHAR f
ENCODING 102
SWIDTH 354 0
DWIDTH 9 0
BBX 12 17 0 0
BITMAP
07E0
0EF0
1CF0
3C00
3C00
FF00
3C00
3C00
3C00
3C00
3C00
3C00
3C00
3C00
3C00
7E00
7F00
ENDCHAR

STARTCHAR g
ENCODING 103
SWIDTH 552 0
DWIDTH 14 0
BBX 13 17 1 -5
BITMAP
3FC0
79F8
71F8
F0E0
F0E0
F0E0
79C0
1F80
6000
6000
FFE0
FFF0
3FF0
6030
C030
E0E0
7F80
ENDCHAR

STARTCHAR h
ENCODING 104
SWIDTH 625 0
DWIDTH 16 0
BBX 15 18 0 0
BITMAP
1C00
FC00
7C00
3C00
3C00
3C00
3DF8
3DFC
3E7C
3C3C
3C3C
3C3C
3C3C
3C3C
3C3C
3C3C
7E7E
FE7E
ENDCHAR

STARTCHAR i
ENCODING 105
SWIDTH 333 0
DWIDTH 8 0
BBX 8 17 0 0
BITMAP
3C
3C
3C
1C
00
00
3C
FC
3C
3C
3C
3C
3C
3C
3C
3C
FF
ENDCHAR

STARTCHAR j
ENCODING 106
SWIDTH 313 0
DWIDTH 8 0
BBX 6 22 0 -5
BITMAP
3C
3C
3C
1C
00
00
3C
FC
7C
3C
3C
3C
3C
3C
3C
3C
3C
38
38
70
E0
80
ENDCHAR

STARTCHAR k
ENCODING 107
SWIDTH 552 0
DWIDTH 14 0
BBX 14 18 0 0
BITMAP
0C00
FC00
7C00
3C00
3C00
3C00
3DF8
3DF8
3CC0
3C80
3D80
3FC0
3DE0
3DF0
3CF8
3C7C
FE3C
FE1C
ENDCHAR

STARTCHAR l
ENCODING 108
SWIDTH 312 0
DWIDTH 8 0
BBX 8 17 0 0
BITMAP
3C
FC
7C
3C
3C
3C
3C
3C
3C
3C
3C
3C
3C
3C
3C
7E
FF
ENDCHAR

STARTCHAR m
ENCODING 109
SWIDTH 979 0
DWIDTH 24 0
BBX 24 12 0 0
BITMAP
3DF1F0
FDFBF8
7E3E7C
3C3C3C
3C3C3C
3C3C3C
3C3C3C
3C3C3C
3C3C3C
3C3C3C
7C3C3E
7F7F7F
ENDCHAR

STARTCHAR n
ENCODING 110
SWIDTH 625 0
DWIDTH 16 0
BBX 15 12 0 0
BITMAP
3CF0
FDF8
7E7C
3C3C
3C3C
3C3C
3C3C
3C3C
3C3C
3C3C
7E7E
FF7E
ENDCHAR

STARTCHAR o
ENCODING 111
SWIDTH 573 0
DWIDTH 14 0
BBX 13 12 1 0
BITMAP
0FC0
39E0
70F0
7078
F078
F078
F078
F078
F070
7870
38E0
0FC0
ENDCHAR

STARTCHAR p
ENCODING 112
SWIDTH 615 0
DWIDTH 15 0
BBX 15 17 0 -5
BITMAP
0DF8
FDFC
7E7C
3C3E
3C1E
3C1E
3C1E
3C1E
3C1C
3C3C
3E78
3FE0
3C00
3C00
3C00
7E00
FF00
ENDCHAR

STARTCHAR q
ENCODING 113
SWIDTH 615 0
DWIDTH 15 0
BBX 15 17 1 -5
BITMAP
0FD8
38F8
7878
7078
F078
F078
F078
F878
7878
7FF8
3F78
1E78
0078
0078
0078
00FC
01FE
ENDCHAR

STARTCHAR r
ENCODING 114
SWIDTH 479 0
DWIDTH 12 0
BBX 12 12 0 0
BITMAP
1CE0
FDF0
7DF0
3EE0
3C60
3C00
3C00
3C00
3C00
3C00
7E00
FF00
ENDCHAR

STARTCHAR s
ENCODING 115
SWIDTH 458 0
DWIDTH 11 0
BBX 10 12 1 0
BITMAP
3F00
6380
E180
F080
FC00
7F00
3F80
0FC0
C1C0
E1C0
7380
3F00
ENDCHAR

STARTCHAR t
ENCODING 116
SWIDTH 375 0
DWIDTH 9 0
BBX 8 15 1 0
BITMAP
18
38
78
FF
78
78
78
78
78
78
78
78
79
3F
3E
ENDCHAR

STARTCHAR u
ENCODING 117
SWIDTH 625 0
DWIDTH 16 0
BBX 15 12 1 0
BITMAP
F8F8
F8F8
7878
7878
7878
7878
7878
7878
7878
7CF8
3FBE
1E7C
ENDCHAR

STARTCHAR v
ENCODING 118
SWIDTH 542 0
DWIDTH 14 0
BBX 13 12 0 0
BITMAP
FC78
FC78
7830
3C20
3C20
1E40
1E40
0F80
0F80
0700
0700
0200
ENDCHAR

STARTCHAR w
ENCODING 119
SWIDTH 771 0
DWIDTH 19 0
BBX 19 12 0 0
BITMAP
FDF9E0
F8F9E0
78F0C0
387880
3C7880
3CFD80
1EBD00
1F9F00
0F1E00
0F0E00
060E00
060C00
ENDCHAR

STARTCHAR x
ENCODING 120
SWIDTH 552 0
DWIDTH 14 0
BBX 13 12 0 0
BITMAP
FEF8
FCF8
3C60
3EC0
1F80
0F00
0780
0DC0
19E0
31F0
F9F8
F9F8
ENDCHAR

STARTCHAR y
ENCODING 121
SWIDTH 542 0
DWIDTH 14 0
BBX 13 17 0 -5
BITMAP
FE78
FC78
7830
3C30
3C20
1E60
1E40
0FC0
0F80
0780
0700
0300
0300
6200
7600
7C00
3800
ENDCHAR

STARTCHAR z
ENCODING 122
SWIDTH 510 0
DWIDTH 13 0
BBX 11 12 1 0
BITMAP
FFE0
E3C0
C3C0
8780
0F00
1F00
1E00
3C00
7C60
7860
F1E0
FFE0
ENDCHAR

STARTCHAR braceleft
ENCODING 123
SWIDTH 396 0
DWIDTH 10 0
BBX 6 22 2 -5
BITMAP
0C
30
30
70
70
30
38
38
30
30
C0
C0
30
30
38
38
78
70
70
70
30
0C
ENDCHAR

STARTCHAR bar
ENCODING 124
SWIDTH 219 0
DWIDTH 5 0
BBX 2 22 2 -5
BITMAP
C0
C0
C0
C0
C0
C0
C0
C0
C0
C0
C0
C0
C0
C0
C0
C0
C0
C0
C0
C0
C0
C0
ENDCHAR

STARTCHAR braceright
ENCODING 125
SWIDTH 396 0
DWIDTH 10 0
BBX 6 22 2 -5
BITMAP
C0
30
38
38
38
78
70
70
30
30
0C
0C
30
30
70
70
30
38
38
30
30
C0
ENDCHAR

STARTCHAR asciitilde
ENCODING 126
SWIDTH 521 0
DWIDTH 13 0
BBX 12 5 1 6
BITMAP
3810
FE20
FFE0
8FE0
0180
ENDCHAR

STARTCHAR space
ENCODING 160
SWIDTH 250 0
DWIDTH 7 0
BBX 0 0 0 0
BITMAP
ENDCHAR

STARTCHAR afii10023
ENCODING 161
SWIDTH 750 0
DWIDTH 19 0
BBX 17 22 1 0
BITMAP
0C1800
1E3C00
1E3C00
0C1800
000000
FFFF00
7C0F00
3C0700
3C0300
3C0000
3C0000
3C0C00
3C1C00
3FFC00
3C1C00
3C0C00
3C0000
3C0000
3C0180
3C0380
7E0F80
FFFF00
ENDCHAR

STARTCHAR afii10051
ENCODING 162
SWIDTH 850 0
DWIDTH 21 0
BBX 20 17 1 0
BITMAP
FFFE00
E79E00
C78600
C78600
078000
078000
078F80
07BFE0
07E3E0
0781F0
0781F0
0780F0
0780F0
078CF0
078CF0
1FEDE0
1FE7C0
ENDCHAR

STARTCHAR afii10052
ENCODING 163
SWIDTH 646 0
DWIDTH 16 0
BBX 15 22 1 0
BITMAP
01F8
03E0
0780
0000
0000
FFFC
7E1E
3C0E
3C06
3C00
3C00
3C00
3C00
3C00
3C00
3C00
3C00
3C00
3C00
3C00
FF00
FF80
ENDCHAR

STARTCHAR afii10053
ENCODING 164
SWIDTH 813 0
DWIDTH 20 0
BBX 18 17 1 0
BITMAP
01FE00
0F87C0
1E03C0
3C01C0
3C00C0
7C0000
780000
780000
FFFC00
F80000
780000
7C0000
7C0180
3C03C0
1E03C0
0F8FC0
03FF00
ENDCHAR

STARTCHAR afii10054
ENCODING 165
SWIDTH 656 0
DWIDTH 16 0
BBX 14 17 1 0
BITMAP
1FE0
3878
7038
F018
F818
FC00
FF80
7FE0
3FF0
0FF8
01FC
007C
C07C
E03C
F03C
F878
1FE0
ENDCHAR

STARTCHAR afii10055
ENCODING 166
SWIDTH 406 0
DWIDTH 10 0
BBX 8 17 1 0
BITMAP
FF
7E
3C
3C
3C
3C
3C
3C
3C
3C
3C
3C
3C
3C
3C
7E
FF
ENDCHAR

STARTCHAR afii10056
ENCODING 167
SWIDTH 406 0
DWIDTH 10 0
BBX 12 22 -1 0
BITMAP
6060
F0F0
F0F0
6060
0000
3FC0
1F80
0F00
0F00
0F00
0F00
0F00
0F00
0F00
0F00
0F00
0F00
0F00
0F00
0F00
1F80
3FC0
ENDCHAR

STARTCHAR afii10057
ENCODING 168
SWIDTH 406 0
DWIDTH 10 0
BBX 11 22 -2 -5
BITMAP
1FE0
0FC0
0780
0780
0780
0780
0780
0780
0780
0780
0780
0780
0780
0780
0780
0780
0780
0780
0780
6700
F600
7C00
ENDCHAR

STARTCHAR afii10058
ENCODING 169
SWIDTH 1086 0
DWIDTH 27 0
BBX 26 17 1 0
BITMAP
1FFFE000
031F8000
020F0000
020F0000
020F0000
020F0000
020F0000
020FFE00
020F0F80
020F0780
020F07C0
020F07C0
420F07C0
E60F07C0
FC0F0F80
FC3F1F80
783FFE00
ENDCHAR

STARTCHAR afii10059
ENCODING 170
SWIDTH 1095 0
DWIDTH 27 0
BBX 26 17 1 0
BITMAP
FF3FE000
7F3FC000
3E0F0000
3C0F0000
3C0F0000
3C0F0000
3C0F0000
3C0F0000
3FFFFE00
3C0F0F80
3C0F0780
3C0F07C0
3C0F07C0
3C0F07C0
3C0F0780
7E1F0F80
FF3FFE00
ENDCHAR

STARTCHAR afii10060
ENCODING 171
SWIDTH 854 0
DWIDTH 21 0
BBX 21 17 0 0
BITMAP
FFFF00
E3C700
E3C300
03C000
03C000
03C000
03C7C0
03DFE0
03F3E0
03E1E0
03C1E0
03C1E0
03C1E0
03C1E0
03C1E0
0FF7F0
0FF7F8
ENDCHAR

STARTCHAR afii10061
ENCODING 172
SWIDTH 781 0
DWIDTH 20 0
BBX 18 22 1 0
BITMAP
007E00
00F000
01E000
000000
000000
FF0700
7F0F80
3C0F80
3C1B80
3C1000
3C1000
3C3000
3C6000
3FF000
3DF800
3CFC00
3C7C00
3C3E00
3C3F00
3C1F00
FF0FC0
FF0FC0
ENDCHAR

STARTCHAR hyphen
ENCODING 173
SWIDTH 458 0
DWIDTH 11 0
BBX 9 3 1 5
BITMAP
FF80
FF80
FF80
ENDCHAR

STARTCHAR afii10062
ENCODING 174
SWIDTH 750 0
DWIDTH 19 0
BBX 17 22 1 0
BITMAP
180E00
3C1E00
1E3E00
0FF800
000000
FF0F80
FE0F80
7C0600
3E0200
3E0600
1F0400
0F8C00
0F8800
07D800
07D000
03F000
03E000
01E000
78E000
78C000
3F8000
1E0000
ENDCHAR

STARTCHAR afii10145
ENCODING 175
SWIDTH 854 0
DWIDTH 21 0
BBX 20 21 1 -4
BITMAP
FF3FF0
7E1FE0
3C0F80
3C0780
3C0780
3C0780
3C0780
3C0780
3C0780
3C0780
3C0780
3C0780
3C0780
3C0780
3C0F80
FE1FE0
FFFFF0
01E000
01E000
01E000
01E000
ENDCHAR

STARTCHAR afii10017
ENCODING 176
SWIDTH 781 0
DWIDTH 20 0
BBX 19 18 0 0
BITMAP
01F000
00F000
01F000
017800
017800
037C00
027C00
063C00
043E00
041E00
0FFF00
081F00
180F00
180F80
100780
3807C0
FC1FE0
FC1FE0
ENDCHAR

STARTCHAR afii10018
ENCODING 177
SWIDTH 740 0
DWIDTH 18 0
BBX 16 17 1 0
BITMAP
FFFC
7E3C
3C0C
3C0E
3C06
3C00
3C00
3C00
3FF8
3C3E
3C1E
3C1F
3C1F
3C1F
3C1E
7C3E
FFF8
ENDCHAR

STARTCHAR afii10019
ENCODING 178
SWIDTH 781 0
DWIDTH 20 0
BBX 18 17 1 0
BITMAP
FFFC00
7C3F00
3C1F80
3C0F80
3C0F80
3C0F80
3C0F00
3C3400
3FF800
3C1F00
3C0F80
3C07C0
3C07C0
3C07C0
3E0F80
7E1F00
FFFE00
ENDCHAR

STARTCHAR afii10020
ENCODING 179
SWIDTH 646 0
DWIDTH 16 0
BBX 15 17 1 0
BITMAP
FFFC
7E1E
3C0E
3C06
3C00
3C00
3C00
3C00
3C00
3C00
3C00
3C00
3C00
3C00
3C00
FF00
FF80
ENDCHAR

STARTCHAR afii10021
ENCODING 180
SWIDTH 781 0
DWIDTH 20 0
BBX 19 21 0 -4
BITMAP
7FFFE0
1C1F80
080F00
080F00
080F00
080F00
080F00
080F00
080F00
080F00
080F00
180F00
100F00
100F00
300F00
701F80
FFFFE0
F003E0
C000E0
C00060
800060
ENDCHAR

STARTCHAR afii10022
ENCODING 181
SWIDTH 750 0
DWIDTH 19 0
BBX 17 17 1 0
BITMAP
FFFF00
7C0F00
3C0700
3C0300
3C0000
3C0000
3C0C00
3C1C00
3FFC00
3C1C00
3C0C00
3C0000
3C0000
3C0180
3C0380
7E0F80
FFFF00
ENDCHAR

STARTCHAR afii10024
ENCODING 182
SWIDTH 1094 0
DWIDTH 27 0
BBX 26 17 1 0
BITMAP
707F8780
FC3F0FC0
7C1E0FC0
641E0980
021E1000
021E1000
021E1000
031E3000
07FFF800
0FDEFC00
0F9E7C00
1F1E3E00
1F1E3E00
3E1E1F00
3E1E1F80
FC7F8FC0
F87F87C0
ENDCHAR

STARTCHAR afii10025
ENCODING 183
SWIDTH 750 0
DWIDTH 19 0
BBX 17 17 1 0
BITMAP
1FF800
787E00
703F00
601F00
401F00
001F00
001E00
003C00
07E000
001E00
000F00
000F80
E00F80
F00F80
F81F00
7C3E00
1FF800
ENDCHAR

STARTCHAR afii10026
ENCODING 184
SWIDTH 854 0
DWIDTH 21 0
BBX 20 17 1 0
BITMAP
FFBFF0
7F0FE0
3C0780
3C0780
3C0F80
3C1B80
3C3780
3C2780
3C4780
3C8780
3D8780
3F0780
3E0780
3C0780
3C0780
FF1FE0
FFBFF0
ENDCHAR

STARTCHAR afii10027
ENCODING 185
SWIDTH 854 0
DWIDTH 21 0
BBX 20 22 1 0
BITMAP
0E0700
1E0F00
0F0F00
07FC00
000000
FFBFF0
7F0FE0
3C0780
3C0780
3C0F80
3C1B80
3C3780
3C2780
3C4780
3C8780
3D8780
3F0780
3E0780
3C0780
3C0780
FF1FE0
FFBFF0
ENDCHAR

STARTCHAR afii10028
ENCODING 186
SWIDTH 781 0
DWIDTH 20 0
BBX 18 17 1 0
BITMAP
FF0700
7F0F80
3C0F80
3C1B80
3C1000
3C1000
3C3000
3C6000
3FF000
3DF800
3CFC00
3C7C00
3C3E00
3C3F00
3C1F00
FF0FC0
FF0FC0
ENDCHAR

STARTCHAR afii10029
ENCODING 187
SWIDTH 833 0
DWIDTH 21 0
BBX 19 17 0 0
BITMAP
1FFFE0
070FC0
020780
020780
020780
020780
020780
020780
020780
020780
020780
020780
020780
E60780
FC0F80
FC1FE0
781FE0
ENDCHAR

STARTCHAR afii10030
ENCODING 188
SWIDTH 1010 0
DWIDTH 25 0
BBX 25 17 0 0
BITMAP
3F00FE00
1F00F800
0F80F800
1F80F800
1F81B800
17C17800
17C37800
13E27C00
13E67C00
31F47C00
31FC3C00
20F83C00
20F83C00
20783E00
60703E00
70707E00
F830FF80
ENDCHAR

STARTCHAR afii10031
ENCODING 189
SWIDTH 875 0
DWIDTH 22 0
BBX 21 17 0 0
BITMAP
FF8FF8
3F07E0
1E03C0
1E03C0
1E03C0
1E03C0
1E03C0
1E03C0
1FFFC0
1E03C0
1E03C0
1E03C0
1E03C0
1E03C0
1E03C0
3F07E0
FF8FF8
ENDCHAR

STARTCHAR afii10032
ENCODING 190
SWIDTH 875 0
DWIDTH 22 0
BBX 19 17 1 0
BITMAP
03F800
0F1E00
1C0F80
3C07C0
7803C0
7803E0
F803E0
F803E0
F803E0
F803E0
F803E0
7803C0
7C03C0
3C0780
3E0700
0F1E00
03F800
ENDCHAR

STARTCHAR afii10033
ENCODING 191
SWIDTH 854 0
DWIDTH 21 0
BBX 20 17 1 0
BITMAP
FFFFF0
7E0FC0
3C0780
3C0780
3C0780
3C0780
3C0780
3C0780
3C0780
3C0780
3C0780
3C0780
3C0780
3C0780
3C0780
FF1FE0
FFBFF0
ENDCHAR

STARTCHAR afii10034
ENCODING 192
SWIDTH 729 0
DWIDTH 18 0
BBX 17 17 1 0
BITMAP
FFFC00
7C3F00
3C1F00
3C0F80
3C0F80
3C0F80
3C0F00
3C1F00
3CFC00
3C0000
3C0000
3C0000
3C0000
3C0000
3C0000
7E0000
FF8000
ENDCHAR

STARTCHAR afii10035
ENCODING 193
SWIDTH 802 0
DWIDTH 20 0
BBX 18 17 1 0
BITMAP
03FE00
0F0F80
1E0380
3C0180
7C01C0
780000
F80000
F80000
F80000
F80000
F80000
7800C0
7C01C0
3C01C0
1E03C0
0F87C0
03FE00
ENDCHAR

STARTCHAR afii10036
ENCODING 194
SWIDTH 740 0
DWIDTH 18 0
BBX 18 17 0 0
BITMAP
FFFFC0
F1E3C0
E1E1C0
C1E0C0
01E000
01E000
01E000
01E000
01E000
01E000
01E000
01E000
01E000
01E000
01E000
03F000
07F800
ENDCHAR

STARTCHAR afii10037
ENCODING 195
SWIDTH 750 0
DWIDTH 19 0
BBX 17 17 1 0
BITMAP
FF0F80
FE0F80
7C0600
3E0200
3E0600
1F0400
0F8C00
0F8800
07D800
07D000
03F000
03E000
01E000
78E000
78C000
3F8000
1E0000
ENDCHAR

STARTCHAR afii10038
ENCODING 196
SWIDTH 974 0
DWIDTH 24 0
BBX 23 17 1 0
BITMAP
01FF00
007C00
007800
1FFFE0
3C7878
78783C
F0781E
F0781E
F0781E
F0781E
70783E
78783C
3E79F8
07FFC0
007800
01FE00
01FF00
ENDCHAR

STARTCHAR afii10039
ENCODING 197
SWIDTH 781 0
DWIDTH 20 0
BBX 19 17 0 0
BITMAP
FFCFC0
7F87C0
3F0700
1F0600
0F8C00
07D800
07F000
03F000
01F000
00F800
01FC00
037E00
063E00
0C1F00
1C0F80
3C1FC0
FE3FE0
ENDCHAR

STARTCHAR afii10040
ENCODING 198
SWIDTH 854 0
DWIDTH 21 0
BBX 20 21 1 -4
BITMAP
FF9FF0
7F0FE0
3C0780
3C0780
3C0780
3C0780
3C0780
3C0780
3C0780
3C0780
3C0780
3C0780
3C0780
3C0780
3C0780
7E0FC0
FFFFF0
0001F0
000070
000030
000030
ENDCHAR

STARTCHAR afii10041
ENCODING 199
SWIDTH 854 0
DWIDTH 21 0
BBX 20 17 1 0
BITMAP
FF1FF0
FF1FE0
3C0780
3C0780
3C0780
3C0780
3C0780
3C0780
3C0F80
3E1B80
1FE780
078780
000780
000780
000780
000FC0
001FF0
ENDCHAR

STARTCHAR afii10042
ENCODING 200
SWIDTH 1125 0
DWIDTH 28 0
BBX 26 17 1 0
BITMAP
FF7FBFC0
7E3F1F80
3C1E0F00
3C1E0F00
3C1E0F00
3C1E0F00
3C1E0F00
3C1E0F00
3C1E0F00
3C1E0F00
3C1E0F00
3C1E0F00
3C1E0F00
3C1E0F00
3C1E0F00
7E3F1F80
FFFFFFC0
ENDCHAR

STARTCHAR afii10043
ENCODING 201
SWIDTH 1125 0
DWIDTH 28 0
BBX 26 21 1 -4
BITMAP
FF7FBFC0
7E3F1F80
3C1E0F00
3C1E0F00
3C1E0F00
3C1E0F00
3C1E0F00
3C1E0F00
3C1E0F00
3C1E0F00
3C1E0F00
3C1E0F00
3C1E0F00
3C1E0F00
3C1E0F00
7E3F1F80
FFFFFFC0
000003C0
000000C0
00000040
00000040
ENDCHAR

STARTCHAR afii10044
ENCODING 202
SWIDTH 832 0
DWIDTH 21 0
BBX 20 17 1 0
BITMAP
FFF800
E3E000
C3C000
83C000
83C000
03C000
03C000
03C000
03FF80
03C3E0
03C1E0
03C1F0
03C1F0
03C1F0
03C3E0
07C7E0
1FFF80
ENDCHAR

STARTCHAR afii10045
ENCODING 203
SWIDTH 1125 0
DWIDTH 28 0
BBX 26 17 1 0
BITMAP
FF803FC0
FF003FC0
3C000F00
3C000F00
3C000F00
3C000F00
3C000F00
3C000F00
3FFC0F00
3C1F0F00
3C0F0F00
3C0F8F00
3C0F8F00
3C0F8F00
3C0F0F00
7C3F1F80
FFFC3FC0
ENDCHAR

STARTCHAR afii10046
ENCODING 204
SWIDTH 721 0
DWIDTH 18 0
BBX 17 17 1 0
BITMAP
FF8000
FF0000
3E0000
3C0000
3C0000
3C0000
3C0000
3C0000
3FFC00
3C1F00
3C0F00
3C0F80
3C0F80
3C0F80
3C0F00
7C3F00
FFFC00
ENDCHAR

STARTCHAR afii10047
ENCODING 205
SWIDTH 802 0
DWIDTH 20 0
BBX 18 17 1 0
BITMAP
1FF000
783C00
701E00
E00F00
C00F80
000780
0007C0
0007C0
07FFC0
0007C0
0007C0
0007C0
600F80
F00F80
F81F00
7C3C00
1FF000
ENDCHAR

STARTCHAR afii10048
ENCODING 206
SWIDTH 1219 0
DWIDTH 30 0
BBX 28 17 1 0
BITMAP
FF01FC00
7E070F00
3C1E07C0
3C1E03E0
3C3C03E0
3C7C01F0
3C7C01F0
3C7C01F0
3FFC01F0
3C7C01F0
3C7C01F0
3C7C01E0
3C3C01E0
3C3E03C0
3C1E0380
7E0F8F00
FF03FC00
ENDCHAR

STARTCHAR afii10049
ENCODING 207
SWIDTH 802 0
DWIDTH 20 0
BBX 20 17 0 0
BITMAP
07FFF0
1F87C0
1E0780
3E0780
3E0780
3E0780
1E0780
0F0780
01FF80
03E780
07C780
0FC780
1F8780
1F0780
3E0F80
FE3FE0
F83FF0
ENDCHAR

STARTCHAR afii10065
ENCODING 208
SWIDTH 563 0
DWIDTH 14 0
BBX 13 12 1 0
BITMAP
3FC0
71E0
F1E0
F1E0
41E0
0FE0
39E0
71E0
F1E0
F1F8
FEF0
3CE0
ENDCHAR

STARTCHAR afii10066
ENCODING 209
SWIDTH 583 0
DWIDTH 15 0
BBX 12 18 1 0
BITMAP
0010
1FF0
3FE0
7FC0
6000
C000
CF80
99C0
B0E0
B0F0
B0F0
B0F0
B0F0
F0F0
70E0
78E0
39C0
1F80
ENDCHAR

STARTCHAR afii10067
ENCODING 210
SWIDTH 573 0
DWIDTH 14 0
BBX 13 12 0 0
BITMAP
FFE0
3C78
3C78
3C78
3C70
3F80
3CF0
3C78
3C78
3C78
7CF0
FFE0
ENDCHAR

STARTCHAR afii10068
ENCODING 211
SWIDTH 542 0
DWIDTH 14 0
BBX 13 12 0 0
BITMAP
FFF8
3C78
3C18
3C08
3C00
3C00
3C00
3C00
3C00
3C00
FF00
FF00
ENDCHAR

STARTCHAR afii10069
ENCODING 212
SWIDTH 565 0
DWIDTH 14 0
BBX 13 16 1 -4
BITMAP
7FF8
31E0
21E0
21E0
21E0
21E0
21E0
21E0
21E0
61E0
61E0
FFF8
E038
C018
8018
8018
ENDCHAR

STARTCHAR afii10070
ENCODING 213
SWIDTH 521 0
DWIDTH 13 0
BBX 11 12 1 0
BITMAP
1F80
33C0
71E0
E1E0
FFE0
E000
F000
F000
F860
7FE0
3F80
0E00
ENDCHAR

STARTCHAR afii10072
ENCODING 214
SWIDTH 1021 0
DWIDTH 26 0
BBX 24 12 1 0
BITMAP
70FF0E
F87E1F
6C3C36
063C60
033CC0
0FFFF0
0F3CF8
1E3C78
3E3C3C
3C3C3C
F8FF1F
F8FF1F
ENDCHAR

STARTCHAR afii10073
ENCODING 215
SWIDTH 521 0
DWIDTH 13 0
BBX 11 12 1 0
BITMAP
3F80
61C0
61E0
41E0
03C0
0E00
03C0
01E0
E1E0
E1E0
F3C0
3F00
ENDCHAR

STARTCHAR afii10074
ENCODING 216
SWIDTH 625 0
DWIDTH 16 0
BBX 14 12 1 0
BITMAP
FEFC
FCF8
3870
38F0
38B0
3970
3A70
3C70
3C70
3870
FCFC
FEFC
ENDCHAR

STARTCHAR afii10075
ENCODING 217
SWIDTH 625 0
DWIDTH 16 0
BBX 14 17 1 0
BITMAP
1870
1870
1C70
0FC0
0000
FEFC
FCF8
3870
38F0
38B0
3970
3A70
3C70
3C70
3870
FCFC
FEFC
ENDCHAR

STARTCHAR afii10076
ENCODING 218
SWIDTH 604 0
DWIDTH 15 0
BBX 15 12 0 0
BITMAP
FF1C
7E3C
3C7C
3C40
3C80
3FE0
3FF0
3CF0
3CF8
3C78
FE3E
FF3E
ENDCHAR

STARTCHAR afii10077
ENCODING 219
SWIDTH 573 0
DWIDTH 14 0
BBX 14 12 0 0
BITMAP
3FFC
18F0
18F0
18F0
18F0
18F0
18F0
18F0
18F0
F0F0
F3FC
63FC
ENDCHAR

STARTCHAR afii10078
ENCODING 220
SWIDTH 781 0
DWIDTH 20 0
BBX 19 12 0 0
BITMAP
7C07C0
7E07C0
3E0F80
2F0B80
2F1B80
279380
27B380
23E380
23E3C0
61C3C0
F1C7E0
F087E0
ENDCHAR

STARTCHAR afii10079
ENCODING 221
SWIDTH 604 0
DWIDTH 15 0
BBX 14 12 1 0
BITMAP
FEFC
7CF8
3870
3870
3870
3FF0
3870
3870
3870
3870
FEFC
FEFC
ENDCHAR

STARTCHAR afii10080
ENCODING 222
SWIDTH 573 0
DWIDTH 14 0
BBX 13 12 1 0
BITMAP
0FC0
39E0
70F0
7078
F078
F078
F078
F078
F070
7870
38E0
0FC0
ENDCHAR

STARTCHAR afii10081
ENCODING 223
SWIDTH 615 0
DWIDTH 15 0
BBX 14 12 1 0
BITMAP
FFFC
78F0
78F0
78F0
78F0
78F0
78F0
78F0
78F0
78F0
FDFC
FDFC
ENDCHAR

STARTCHAR afii10082
ENCODING 224
SWIDTH 615 0
DWIDTH 15 0
BBX 15 17 0 -5
BITMAP
0DF8
FDFC
7E7C
3C3E
3C1E
3C1E
3C1E
3C1E
3C1C
3C3C
3E78
3FE0
3C00
3C00
3C00
7E00
FF00
ENDCHAR

STARTCHAR afii10083
ENCODING 225
SWIDTH 521 0
DWIDTH 13 0
BBX 11 12 1 0
BITMAP
1F80
31E0
71E0
E0C0
E000
E000
F000
F000
F860
7FC0
3FC0
1E00
ENDCHAR

STARTCHAR afii10084
ENCODING 226
SWIDTH 583 0
DWIDTH 15 0
BBX 14 12 0 0
BITMAP
7FF8
679C
C78C
C78C
0780
0780
0780
0780
0780
0780
1FE0
1FE0
ENDCHAR

STARTCHAR afii10085
ENCODING 227
SWIDTH 542 0
DWIDTH 14 0
BBX 13 17 0 -5
BITMAP
FE78
FC78
7830
3C30
3C20
1E60
1E40
0FC0
0F80
0780
0700
0300
0300
6200
7600
7C00
3800
ENDCHAR

STARTCHAR afii10086
ENCODING 228
SWIDTH 823 0
DWIDTH 21 0
BBX 19 22 1 -4
BITMAP
006000
03E000
01E000
00E000
00E000
00E000
1EEF00
39F380
71F1C0
70E1C0
F0E1E0
F0E1E0
F0E1E0
F0E1E0
70E1C0
71F1C0
39F380
1EEF00
00E000
00E000
00E000
03F800
ENDCHAR

STARTCHAR afii10087
ENCODING 229
SWIDTH 552 0
DWIDTH 14 0
BBX 13 12 0 0
BITMAP
FEF8
FCF8
3C60
3EC0
1F80
0F00
0780
0DC0
19E0
31F0
F9F8
F9F8
ENDCHAR

STARTCHAR afii10088
ENCODING 230
SWIDTH 615 0
DWIDTH 15 0
BBX 14 16 1 -4
BITMAP
FDFC
FDF8
78F0
78F0
78F0
78F0
78F0
78F0
78F0
78F0
78F0
FFFC
003C
000C
000C
000C
ENDCHAR

STARTCHAR afii10089
ENCODING 231
SWIDTH 594 0
DWIDTH 15 0
BBX 14 12 1 0
BITMAP
FDFC
78F0
78F0
78F0
78F0
78F0
3DF0
1F70
00F0
00F0
01F8
03FC
ENDCHAR

STARTCHAR afii10090
ENCODING 232
SWIDTH 1022 0
DWIDTH 26 0
BBX 26 12 0 0
BITMAP
FF7FBFC0
7E3F1F80
3C1E0F00
3C1E0F00
3C1E0F00
3C1E0F00
3C1E0F00
3C1E0F00
3C1E0F00
3C1E0F00
3C3E1F00
FFFFFFC0
ENDCHAR

STARTCHAR afii10091
ENCODING 233
SWIDTH 1019 0
DWIDTH 25 0
BBX 25 16 0 -4
BITMAP
7E7F7F80
7E7E3F00
3C3C1E00
3C3C1E00
3C3C1E00
3C3C1E00
3C3C1E00
3C3C1E00
3C3C1E00
3C3C1E00
3C3C3E00
FFFFFF80
00000780
00000180
00000180
00000180
ENDCHAR

STARTCHAR afii10092
ENCODING 234
SWIDTH 729 0
DWIDTH 18 0
BBX 18 12 0 0
BITMAP
7FF000
73C000
63C000
C3C000
03C000
03FF00
03C780
03C3C0
03C3C0
03C3C0
03C780
0FFF00
ENDCHAR

STARTCHAR afii10093
ENCODING 235
SWIDTH 833 0
DWIDTH 21 0
BBX 20 12 1 0
BITMAP
FC0FF0
FC07E0
7803C0
7803C0
7803C0
7FC3C0
79E3C0
78F3C0
78F3C0
78F3C0
79E7C0
FFCFF0
ENDCHAR

STARTCHAR afii10094
ENCODING 236
SWIDTH 563 0
DWIDTH 14 0
BBX 13 12 0 0
BITMAP
FE00
7E00
3C00
3C00
3C00
3FE0
3CF0
3C78
3C78
3C78
7CF0
FFE0
ENDCHAR

STARTCHAR afii10095
ENCODING 237
SWIDTH 521 0
DWIDTH 13 0
BBX 11 12 1 0
BITMAP
7F00
E3C0
C1C0
C1E0
01E0
1FE0
01E0
01E0
E1C0
F1C0
F380
3F00
ENDCHAR

STARTCHAR afii10096
ENCODING 238
SWIDTH 854 0
DWIDTH 21 0
BBX 20 12 0 0
BITMAP
FE1F80
7C71C0
38F1E0
38E0F0
38E0F0
3FE0F0
39E0F0
38E0F0
38F0E0
38F0E0
FE79C0
FE1F80
ENDCHAR

STARTCHAR afii10097
ENCODING 239
SWIDTH 604 0
DWIDTH 15 0
BBX 15 12 0 0
BITMAP
0FFE
1E78
3C78
3C78
1C78
07F8
0F78
1E78
3C78
3C78
F8FE
F8FE
ENDCHAR

STARTCHAR afii61352
ENCODING 240
SWIDTH 1115 0
DWIDTH 28 0
BBX 26 17 0 0
BITMAP
7F01C000
1F01E000
0F83E000
0FC20000
0BC21F00
0BE23980
09F231C0
09F271C0
08FA71C0
087E71C0
087E31C0
083E3B80
081E1F00
681E0000
F80E0000
F8063FC0
70063FC0
ENDCHAR

STARTCHAR afii10071
ENCODING 241
SWIDTH 521 0
DWIDTH 13 0
BBX 11 17 1 0
BITMAP
71C0
71C0
71C0
0000
0000
1F80
71C0
61E0
E1E0
FFE0
E000
E000
F000
F860
7FE0
3F80
1E00
ENDCHAR

STARTCHAR afii10099
ENCODING 242
SWIDTH 594 0
DWIDTH 15 0
BBX 13 22 0 -4
BITMAP
0C00
FC00
7C00
3C00
7FF0
3C00
3C00
3DE0
3DF0
3C78
3C78
3C78
3C78
3C78
3C78
3C78
7E70
FE70
0060
00C0
0080
0180
ENDCHAR

STARTCHAR afii10100
ENCODING 243
SWIDTH 542 0
DWIDTH 14 0
BBX 13 19 0 0
BITMAP
01C0
03C0
0380
0700
0600
0000
0000
FFF8
3C78
3C18
3C08
3C00
3C00
3C00
3C00
3C00
3C00
FF00
FF00
ENDCHAR

STARTCHAR afii10101
ENCODING 244
SWIDTH 521 0
DWIDTH 13 0
BBX 11 12 1 0
BITMAP
1FC0
38E0
7060
F060
F000
FF00
F000
F000
70E0
70E0
39E0
0FC0
ENDCHAR

STARTCHAR afii10102
ENCODING 245
SWIDTH 458 0
DWIDTH 11 0
BBX 10 12 1 0
BITMAP
3F00
6380
E180
F080
FC00
7F00
3F80
0FC0
C1C0
E1C0
7380
3F00
ENDCHAR

STARTCHAR afii10103
ENCODING 246
SWIDTH 333 0
DWIDTH 8 0
BBX 8 17 0 0
BITMAP
3C
3C
3C
1C
00
00
3C
FC
3C
3C
3C
3C
3C
3C
3C
3C
FF
ENDCHAR

STARTCHAR afii10104
ENCODING 247
SWIDTH 333 0
DWIDTH 8 0
BBX 8 16 0 0
BITMAP
E7
E7
E7
00
00
7C
FC
3C
3C
3C
3C
3C
3C
3C
3E
FF
ENDCHAR

STARTCHAR afii10105
ENCODING 248
SWIDTH 313 0
DWIDTH 8 0
BBX 6 22 0 -5
BITMAP
3C
3C
3C
1C
00
00
3C
FC
7C
3C
3C
3C
3C
3C
3C
3C
3C
38
38
70
E0
80
ENDCHAR

STARTCHAR afii10106
ENCODING 249
SWIDTH 854 0
DWIDTH 21 0
BBX 20 12 1 0
BITMAP
7FFC00
30F800
10F000
10F000
10F000
10FFC0
10F1E0
10F0F0
10F0F0
F0F0F0
E3F1E0
E3FFC0
ENDCHAR

STARTCHAR afii10107
ENCODING 250
SWIDTH 854 0
DWIDTH 21 0
BBX 21 12 0 0
BITMAP
FEFE00
7C7C00
383800
383800
383800
3FFFE0
3838F0
383878
383878
383878
7C78F0
FEFFE0
ENDCHAR

STARTCHAR afii10108
ENCODING 251
SWIDTH 625 0
DWIDTH 16 0
BBX 15 18 0 0
BITMAP
0C00
FC00
7C00
3C00
3C00
FFF8
3C00
3C00
3CF0
3DF8
3E3C
3C3C
3C3C
3C3C
3C3C
3C3C
7E7E
FE7E
ENDCHAR

STARTCHAR afii10109
ENCODING 252
SWIDTH 604 0
DWIDTH 15 0
BBX 15 18 0 0
BITMAP
00F0
00F0
01E0
01C0
0380
0000
FF1C
7E3C
3C7C
3C40
3C80
3FE0
3FF0
3CF0
3CF8
3C78
FE3E
FF3E
ENDCHAR

STARTCHAR section
ENCODING 253
SWIDTH 573 0
DWIDTH 14 0
BBX 12 22 1 -5
BITMAP
1FC0
39F0
50F0
D870
9800
9C00
CE00
C700
E380
7180
39C0
3CE0
1C70
0E30
0730
0390
0190
20D0
F050
F860
7CC0
3F80
ENDCHAR

STARTCHAR afii10110
ENCODING 254
SWIDTH 542 0
DWIDTH 14 0
BBX 13 22 0 -5
BITMAP
3870
3870
18E0
0FC0
0000
FE78
FC78
7830
3C30
3C20
1E60
1E40
0FC0
0F80
0780
0700
0300
0300
6200
7600
7C00
3800
ENDCHAR

STARTCHAR afii10193
ENCODING 255
SWIDTH 612 0
DWIDTH 15 0
BBX 15 16 1 -4
BITMAP
FEFE
FCFC
7878
7878
7878
7878
7878
7878
7878
7878
7CFC
FFFE
0780
0780
0780
0780
ENDCHAR
ENDFONT
